<?xml version="1.0" standalone="no"?>
<!DOCTYPE svg PUBLIC "-//W3C//DTD SVG 20010904//EN"
 "http://www.w3.org/TR/2001/REC-SVG-20010904/DTD/svg10.dtd">
<svg version="1.0" xmlns="http://www.w3.org/2000/svg"
 width="16.000000pt" height="16.000000pt" viewBox="0 0 16.000000 16.000000"
 preserveAspectRatio="xMidYMid meet">
<metadata>
Created by potrace 1.11, written by Peter Selinger 2001-2013
</metadata>
<g transform="translate(0.000000,16.000000) scale(0.000798,-0.000798)"
fill="#000000" stroke="none">
<path d="M670 20033 c-311 -52 -555 -269 -642 -570 l-23 -78 0 -9365 c0 -9018
1 -9367 18 -9430 77 -275 294 -492 567 -567 62 -17 486 -18 9380 -21 6870 -2
9336 0 9395 8 347 49 616 318 665 665 8 59 10 2525 8 9395 -3 8894 -4 9318
-21 9380 -43 158 -146 316 -271 416 -73 59 -195 122 -291 151 -58 17 -421 18
-9410 19 -5142 1 -9361 -1 -9375 -3z m8595 -1697 c54 -25 100 -71 122 -123 11
-27 13 -653 13 -3746 l0 -3713 -26 -52 c-29 -59 -70 -94 -133 -117 -39 -13
-458 -15 -3732 -15 l-3688 0 -55 20 c-59 23 -107 69 -135 129 -15 33 -16 342
-16 3741 0 3563 1 3707 18 3752 21 54 88 119 139 135 23 8 1174 11 3738 12
l3705 1 50 -24z m8962 1 c50 -27 100 -85 117 -135 14 -41 16 -415 16 -3741 l0
-3696 -21 -45 c-25 -55 -62 -95 -114 -123 l-40 -22 -3720 0 -3720 0 -40 22
c-47 25 -85 64 -111 113 -18 34 -19 147 -22 3735 -2 2780 0 3710 9 3740 21 75
87 144 155 165 16 4 1701 8 3744 7 3519 -2 3717 -3 3747 -20z m-8947 -8963
c38 -22 64 -46 85 -79 l30 -48 3 -3711 c1 -2041 0 -3725 -3 -3742 -10 -58 -61
-121 -123 -151 l-57 -28 -3710 0 c-3669 0 -3710 0 -3750 20 -21 10 -56 36 -77
57 -74 74 -68 -276 -66 3839 l3 3695 25 48 c31 61 85 105 147 122 39 10 752
12 3743 11 l3695 -2 55 -31z"/>
</g>
</svg>
