<?xml version="1.0" standalone="no"?>
<!DOCTYPE svg PUBLIC "-//W3C//DTD SVG 20010904//EN"
 "http://www.w3.org/TR/2001/REC-SVG-20010904/DTD/svg10.dtd">
<svg version="1.0" xmlns="http://www.w3.org/2000/svg"
 width="640.000000pt" height="640.000000pt" viewBox="0 0 640.000000 640.000000"
 preserveAspectRatio="xMidYMid meet">
<metadata>
Created by potrace 1.11, written by Peter Selinger 2001-2013
</metadata>
<g transform="translate(0.000000,640.000000) scale(0.100000,-0.100000)"
fill="#000000" stroke="none">
<path d="M0 5580 l0 -820 475 0 c372 0 476 3 479 13 2 6 11 47 20 89 34 150
144 327 270 429 74 61 236 141 331 165 94 23 276 23 370 0 96 -24 257 -104
332 -165 119 -98 227 -265 270 -421 28 -102 25 -331 -6 -430 -86 -277 -283
-473 -556 -556 -79 -24 -107 -27 -225 -27 -118 0 -146 3 -225 27 -310 94 -511
322 -580 659 l-5 27 -475 0 -475 0 0 -640 0 -640 1982 2 1983 3 7 47 c9 64 34
139 74 222 134 272 415 445 722 446 386 1 719 -268 796 -642 56 -272 -25 -542
-221 -741 -308 -312 -814 -318 -1131 -13 -79 75 -122 133 -166 222 -40 83 -65
158 -74 222 l-7 47 -1983 3 -1982 2 0 -640 0 -640 978 0 977 0 22 90 c57 238
210 433 426 539 137 68 211 85 367 85 145 -1 231 -20 353 -79 285 -140 472
-455 453 -765 -8 -132 -28 -209 -87 -327 -97 -196 -274 -348 -482 -412 -160
-49 -332 -48 -495 4 -273 87 -500 349 -547 633 l-7 42 -979 0 -979 0 0 -820 0
-820 3200 0 3200 0 0 3200 0 3200 -3200 0 -3200 0 0 -820z"/>
<path d="M1602 5295 c-102 -24 -220 -92 -296 -169 -124 -125 -184 -257 -193
-426 -19 -344 223 -632 571 -680 261 -37 535 111 656 354 132 267 69 586 -152
780 -62 54 -189 120 -273 141 -72 18 -239 18 -313 0z"/>
<path d="M4630 3835 c-239 -54 -445 -262 -495 -500 -73 -349 155 -697 505
-771 89 -19 227 -14 310 11 174 53 331 185 405 340 173 366 -16 791 -405 910
-77 23 -239 28 -320 10z"/>
<path d="M2680 2381 c-256 -35 -477 -230 -540 -476 -24 -95 -26 -232 -4 -325
27 -116 79 -205 174 -300 133 -134 267 -190 456 -190 289 0 532 178 620 455
30 93 37 243 15 335 -19 79 -71 185 -125 257 -131 173 -377 274 -596 244z"/>
</g>
</svg>
